<svg xmlns="http://www.w3.org/2000/svg" viewBox="0 0 600 180" width="600" height="180" role="img" aria-label="Appli"><style>
.tile{transform-box:fill-box;transform-origin:center;animation:pop .7s cubic-bezier(.3,1.5,.5,1) both}
.legs{stroke-dasharray:100;animation:draw .65s .35s cubic-bezier(.6,0,.3,1) both}
.gap,.tick{stroke-dasharray:100;animation:draw .5s .95s cubic-bezier(.5,0,.2,1) both}
.word{animation:rise .7s .55s cubic-bezier(.2,.8,.2,1) both}
@keyframes pop{from{transform:scale(.4);opacity:0}to{transform:none;opacity:1}}
@keyframes draw{from{stroke-dashoffset:100}to{stroke-dashoffset:0}}
@keyframes rise{from{transform:translateX(-14px);opacity:0}to{transform:none;opacity:1}}
@media (prefers-reduced-motion: reduce){*{animation:none!important}}</style><defs><linearGradient id="ht" gradientUnits="userSpaceOnUse" x1="0" y1="0" x2="32" y2="32"><stop offset="0" stop-color="#2ef5b0"/><stop offset="1" stop-color="#c8ff6e"/></linearGradient><path id="g0" d="M11 0 263 745H469L721 0H552L502 152H229L179 0ZM272 287H459L366 574Z"/><path id="g1" d="M55 -200V546H195V489Q219 518 256 536Q302 558 362 558Q440 558 503 520Q566 482 603 418Q640 353 640 273Q640 194 604 129Q567 64 504 26Q441 -12 361 -12Q305 -12 258 9Q228 21 205 42V-200ZM343 123Q385 123 417 142Q449 161 467 195Q485 229 485 273Q485 317 467 350Q449 384 417 404Q385 423 343 423Q303 423 272 404Q240 385 222 351Q205 317 205 273Q205 229 222 195Q240 161 272 142Q303 123 343 123Z"/><path id="g2" d="M55 0V757H205V0Z"/><path id="g3" d="M55 0V546H205V0ZM55 595V745H205V595Z"/></defs><g transform="translate(66.6 24.0) scale(4.1250)"><rect width="32" height="32" rx="9.5" fill="url(#ht)" class="tile"/><path d="M8.6 24.4L16 7.6 23.4 24.4" fill="none" stroke="#05281c" stroke-width="3.2" stroke-linecap="round" stroke-linejoin="round" pathLength="100" class="legs"/><path d="M11.6 18.2l3 2.9 8.6-9.2" fill="none" stroke="url(#ht)" stroke-width="6" stroke-linecap="round" stroke-linejoin="round" pathLength="100" class="gap"/><path d="M11.6 18.2l3 2.9 8.6-9.2" fill="none" stroke="#05281c" stroke-width="3.2" stroke-linecap="round" stroke-linejoin="round" pathLength="100" class="tick"/></g><g class="word"><g fill="#111413"><use href="#g0" transform="matrix(0.124 0 0 -0.124 228.6 134.6)"/><use href="#g1" transform="matrix(0.124 0 0 -0.124 315.0 134.6)"/><use href="#g1" transform="matrix(0.124 0 0 -0.124 394.1 134.6)"/><use href="#g2" transform="matrix(0.124 0 0 -0.124 473.3 134.6)"/><use href="#g3" transform="matrix(0.124 0 0 -0.124 501.2 134.6)"/></g></g></svg>
